<svg width="24" height="24" viewBox="0 0 24 24" fill="none" xmlns="http://www.w3.org/2000/svg">
<path d="M9.66705 17.875H9.65205C9.51807 17.8732 9.38582 17.8444 9.26317 17.7905C9.14051 17.7366 9.02995 17.6585 8.93805 17.561L4.27205 12.6C4.18196 12.5044 4.11158 12.392 4.06494 12.2692C4.0183 12.1464 3.9963 12.0156 4.0002 11.8843C4.00807 11.6191 4.12097 11.368 4.31405 11.186C4.50712 11.0041 4.76457 10.9063 5.02974 10.9142C5.16105 10.9181 5.29029 10.9478 5.41011 11.0016C5.52992 11.0555 5.63796 11.1324 5.72805 11.228L9.68705 15.435L18.287 6.79202C18.379 6.69629 18.4892 6.61983 18.611 6.5671C18.7329 6.51438 18.864 6.48644 18.9967 6.48493C19.1295 6.48341 19.2612 6.50835 19.3842 6.55828C19.5073 6.60822 19.6191 6.68215 19.7132 6.77576C19.8074 6.86937 19.8819 6.98079 19.9326 7.10353C19.9832 7.22626 20.0089 7.35785 20.0081 7.49061C20.0074 7.62337 19.9802 7.75465 19.9281 7.8768C19.8761 7.99894 19.8003 8.1095 19.705 8.20202L10.375 17.58C10.2825 17.6737 10.1722 17.748 10.0507 17.7986C9.92913 17.8493 9.79872 17.8752 9.66705 17.875Z" fill="white"/>
</svg>
